<svg xmlns="http://www.w3.org/2000/svg" xmlns:xlink="http://www.w3.org/1999/xlink" width="500" zoomAndPan="magnify" viewBox="0 0 375 374.999991" height="500" preserveAspectRatio="xMidYMid meet" version="1.0"><defs><filter x="0%" y="0%" width="100%" height="100%" id="4e65d82924"><feColorMatrix values="0 0 0 0 1 0 0 0 0 1 0 0 0 0 1 0 0 0 1 0" color-interpolation-filters="sRGB"/></filter><g/><mask id="f0a5c2c527"><g filter="url(#4e65d82924)"><rect x="-37.5" width="450" fill="#000000" y="-37.499999" height="449.999989" fill-opacity="0.8"/></g></mask><clipPath id="beb3c20cf1"><path d="M 0.398438 0.320312 L 38.320312 0.320312 L 38.320312 55.28125 L 0.398438 55.28125 Z M 0.398438 0.320312 " clip-rule="nonzero"/></clipPath><clipPath id="beb446faf1"><rect x="0" width="39" y="0" height="56"/></clipPath><mask id="df962fa1e7"><g filter="url(#4e65d82924)"><rect x="-37.5" width="450" fill="#000000" y="-37.499999" height="449.999989" fill-opacity="0.8"/></g></mask><clipPath id="eaa2cc52d5"><path d="M 0.199219 0.640625 L 10.761719 0.640625 L 10.761719 19.839844 L 0.199219 19.839844 Z M 0.199219 0.640625 " clip-rule="nonzero"/></clipPath><clipPath id="cb6421494c"><rect x="0" width="11" y="0" height="20"/></clipPath><mask id="fef081896e"><g filter="url(#4e65d82924)"><rect x="-37.5" width="450" fill="#000000" y="-37.499999" height="449.999989" fill-opacity="0.6"/></g></mask><clipPath id="c718ef1b95"><path d="M 0.0390625 0.078125 L 59 0.078125 L 59 56 L 0.0390625 56 Z M 0.0390625 0.078125 " clip-rule="nonzero"/></clipPath><clipPath id="d09c00a4cf"><rect x="0" width="60" y="0" height="56"/></clipPath><mask id="44e6c6b49f"><g filter="url(#4e65d82924)"><rect x="-37.5" width="450" fill="#000000" y="-37.499999" height="449.999989" fill-opacity="0.8"/></g></mask><clipPath id="36ee64524a"><path d="M 0.078125 0.558594 L 34.640625 0.558594 L 34.640625 29.121094 L 0.078125 29.121094 Z M 0.078125 0.558594 " clip-rule="nonzero"/></clipPath><clipPath id="342ddc6137"><rect x="0" width="35" y="0" height="30"/></clipPath><mask id="86ebe17f8f"><g filter="url(#4e65d82924)"><rect x="-37.5" width="450" fill="#000000" y="-37.499999" height="449.999989" fill-opacity="0.8"/></g></mask><clipPath id="0ef397faa4"><path d="M 0.640625 0.398438 L 44.800781 0.398438 L 44.800781 28.480469 L 0.640625 28.480469 Z M 0.640625 0.398438 " clip-rule="nonzero"/></clipPath><clipPath id="aa0f5935db"><rect x="0" width="45" y="0" height="29"/></clipPath><mask id="4b7d3e9786"><g filter="url(#4e65d82924)"><rect x="-37.5" width="450" fill="#000000" y="-37.499999" height="449.999989" fill-opacity="0.6"/></g></mask><clipPath id="52b05dfc28"><path d="M 0.71875 0.441406 L 17.519531 0.441406 L 17.519531 37.640625 L 0.71875 37.640625 Z M 0.71875 0.441406 " clip-rule="nonzero"/></clipPath><clipPath id="415d505459"><rect x="0" width="18" y="0" height="38"/></clipPath><mask id="cf159a603c"><g filter="url(#4e65d82924)"><rect x="-37.5" width="450" fill="#000000" y="-37.499999" height="449.999989" fill-opacity="0.6"/></g></mask><clipPath id="9f4681a2d9"><path d="M 0.160156 0.320312 L 21.761719 0.320312 L 21.761719 33.921875 L 0.160156 33.921875 Z M 0.160156 0.320312 " clip-rule="nonzero"/></clipPath><clipPath id="50277dd4e8"><rect x="0" width="22" y="0" height="34"/></clipPath></defs><path fill="#a6a6a6" d="M 195.882812 52.242188 C 183.617188 40.546875 167.066406 34.671875 152.6875 45.273438 C 152.453125 45.945312 152.304688 46.621094 152.140625 47.316406 C 139.660156 98.773438 113.875 192.113281 76.414062 228.171875 C 107.269531 238.554688 127.578125 225.726562 140.0625 204.792969 C 144.238281 196.800781 148.527344 184.777344 152.542969 174.410156 C 166.0625 137.476562 184.183594 88.867188 195.882812 52.242188 Z M 195.882812 52.242188 " fill-opacity="1" fill-rule="nonzero"/><path fill="#7d00ae" d="M 152.6875 45.273438 C 152.671875 45.273438 152.671875 45.273438 152.6875 45.273438 C 152.433594 45.945312 153.125 46.695312 152.890625 47.371094 C 134.570312 96.949219 114.277344 190.816406 76.394531 228.1875 C 100.535156 234.648438 124.09375 220.25 135.242188 199.320312 C 143.949219 186.074219 186.464844 51.550781 188.453125 46.113281 C 188.4375 46.09375 161.613281 38.335938 152.6875 45.273438 Z M 152.6875 45.273438 " fill-opacity="1" fill-rule="nonzero"/><path fill="#9c00c9" d="M 152.6875 45.273438 C 152.6875 45.273438 153.746094 46.640625 153.730469 46.640625 C 153.730469 46.640625 152.742188 45.289062 152.742188 45.289062 C 152.507812 45.964844 152.945312 47.207031 152.90625 47.917969 C 150.84375 87.550781 137.359375 177.988281 76.394531 228.171875 C 101.46875 233.132812 125.464844 206.785156 139.679688 175.671875 C 154.457031 140.199219 169.859375 80.179688 181.265625 44.558594 C 181.117188 44.523438 158.910156 40.507812 152.6875 45.273438 Z M 152.6875 45.273438 " fill-opacity="1" fill-rule="nonzero"/><path fill="#fdf0ff" d="M 161.484375 41.367188 C 156.484375 42.460938 154.914062 43.738281 152.6875 45.253906 C 146.300781 62.972656 140.078125 83.320312 134.292969 101.65625 C 119.789062 143.847656 107.542969 194.683594 76.414062 228.152344 C 116.394531 216.199219 161.613281 41.347656 161.484375 41.367188 Z M 161.484375 41.367188 " fill-opacity="1" fill-rule="nonzero"/><path fill="#ba00e3" d="M 161.410156 41.675781 C 160.589844 46.386719 114.148438 215.359375 76.578125 228.132812 C 137.78125 212.183594 158.054688 84.394531 172.195312 41.3125 C 171.558594 43.265625 166.667969 40.617188 161.410156 41.675781 Z M 161.410156 41.675781 " fill-opacity="1" fill-rule="nonzero"/><g mask="url(#f0a5c2c527)"><g transform="matrix(1, 0, 0, 1, 152, 40)"><g clip-path="url(#beb446faf1)"><g clip-path="url(#beb3c20cf1)"><path fill="#a6a6a6" d="M 38.078125 30.144531 C 38.078125 30.144531 38.058594 30.179688 38.042969 30.253906 C 38.003906 30.363281 37.933594 30.5625 37.839844 30.835938 C 36.800781 33.828125 32.566406 45.929688 29.136719 55.125 C 27.457031 0.289062 0.6875 5.253906 0.6875 5.253906 C 0.980469 5.054688 1.253906 4.851562 1.527344 4.652344 C 2.402344 4.050781 3.242188 3.539062 4.046875 3.101562 C 7.128906 1.367188 9.503906 0.691406 10.03125 0.546875 C 10.050781 0.546875 10.085938 0.527344 10.085938 0.527344 C 10.105469 0.527344 10.121094 0.507812 10.140625 0.507812 L 17.785156 2.917969 L 19.410156 3.429688 L 22.421875 5.800781 L 28.515625 10.617188 L 34.539062 15.363281 L 34.976562 17.207031 Z M 38.078125 30.144531 " fill-opacity="1" fill-rule="nonzero"/></g></g></g></g><path fill="#9c00c9" d="M 152.6875 45.253906 C 152.707031 45.234375 152.78125 45.179688 152.925781 45.109375 C 152.835938 45.164062 152.761719 45.21875 152.6875 45.253906 Z M 152.6875 45.253906 " fill-opacity="1" fill-rule="nonzero"/><path fill="#ba00e3" d="M 303.671875 79.613281 C 273.671875 131.546875 217.960938 168.480469 152.488281 174.410156 C 149.859375 181.65625 146.976562 189.175781 143.785156 196.566406 C 202.816406 193.753906 283.269531 146.984375 303.671875 79.613281 C 303.707031 79.542969 303.671875 79.613281 303.671875 79.613281 Z M 303.671875 79.613281 " fill-opacity="1" fill-rule="nonzero"/><path fill="#9c00c9" d="M 303.671875 79.613281 C 273.671875 131.546875 217.960938 168.480469 152.488281 174.410156 C 149.859375 181.65625 149.789062 181.566406 147.140625 188.574219 C 206.171875 185.761719 274.164062 147.257812 303.671875 79.613281 C 303.707031 79.542969 303.671875 79.613281 303.671875 79.613281 Z M 303.671875 79.613281 " fill-opacity="1" fill-rule="nonzero"/><path fill="#7d00ae" d="M 152.269531 174.484375 C 149.640625 181.730469 151.230469 177.914062 149.003906 183.644531 C 208.035156 180.835938 272.703125 142.167969 303.671875 79.613281 C 273.671875 131.546875 217.761719 168.554688 152.269531 174.484375 Z M 152.269531 174.484375 " fill-opacity="1" fill-rule="nonzero"/><path fill="#a6a6a6" d="M 261.71875 129.320312 C 259.730469 130.980469 257.703125 132.605469 255.644531 134.195312 C 241.519531 145.070312 225.753906 154.101562 208.746094 160.910156 C 207.761719 161.308594 206.773438 161.691406 205.789062 162.078125 C 202.339844 163.390625 198.835938 164.632812 195.296875 165.761719 C 194.730469 165.945312 194.167969 166.109375 193.617188 166.292969 C 181.210938 170.140625 168.234375 172.824219 154.859375 174.210938 C 154.09375 174.285156 153.328125 174.375 152.5625 174.429688 C 152.433594 174.449219 152.324219 174.449219 152.195312 174.464844 C 151.464844 176.492188 150.828125 177.222656 150.207031 177.386719 L 150.207031 179.429688 C 150.371094 179.410156 150.515625 179.410156 150.679688 179.394531 C 152.214844 179.265625 153.765625 179.121094 155.296875 178.957031 C 169.039062 177.460938 183.164062 174.300781 197.066406 169.539062 C 197.523438 169.375 198 169.230469 198.453125 169.066406 C 201.957031 167.84375 205.441406 166.511719 208.910156 165.070312 C 210.078125 164.59375 211.246094 164.082031 212.394531 163.589844 C 227.90625 156.839844 242.886719 148.027344 256.484375 137.242188 C 258.800781 135.417969 261.0625 133.519531 263.289062 131.566406 C 279.640625 117.277344 293.652344 99.925781 303.671875 79.667969 C 292.832031 98.390625 278.582031 115.214844 261.71875 129.320312 Z M 261.71875 129.320312 " fill-opacity="1" fill-rule="nonzero"/><path fill="#fdf0ff" d="M 303.671875 79.613281 C 296.480469 103.992188 284.292969 125.652344 268.527344 143.808594 C 266.9375 145.636719 265.3125 147.441406 263.652344 149.195312 C 263.253906 149.613281 262.871094 150.03125 262.46875 150.433594 C 261.390625 151.566406 260.277344 152.660156 259.183594 153.753906 C 250.441406 162.367188 240.808594 170.015625 230.515625 176.621094 C 228.65625 177.824219 226.757812 178.972656 224.839844 180.105469 C 219.785156 183.078125 214.605469 185.816406 209.273438 188.28125 C 208.78125 188.5 208.308594 188.738281 207.816406 188.957031 C 190.058594 197.003906 170.917969 202.203125 151.15625 204.15625 C 147.453125 204.519531 143.746094 204.757812 140.007812 204.886719 C 140.023438 204.847656 140.042969 204.792969 140.0625 204.757812 C 141.355469 202.039062 142.597656 199.300781 143.785156 196.527344 C 143.820312 196.527344 143.839844 196.527344 143.875 196.527344 C 147.105469 196.382812 150.40625 196.089844 153.746094 195.671875 C 170.117188 193.644531 187.6875 188.554688 204.933594 180.855469 C 205.496094 180.597656 206.0625 180.34375 206.628906 180.085938 C 210.644531 178.261719 214.621094 176.292969 218.5625 174.175781 C 220.1875 173.300781 221.8125 172.421875 223.417969 171.492188 C 235.042969 164.886719 246.207031 157.132812 256.429688 148.335938 C 257.285156 147.605469 258.144531 146.859375 258.984375 146.089844 C 259.804688 145.363281 260.644531 144.613281 261.445312 143.847656 C 263.324219 142.113281 265.167969 140.34375 266.957031 138.535156 C 283.761719 121.710938 296.972656 101.785156 303.671875 79.613281 Z M 303.671875 79.613281 " fill-opacity="1" fill-rule="nonzero"/><g mask="url(#df962fa1e7)"><g transform="matrix(1, 0, 0, 1, 253, 134)"><g clip-path="url(#cb6421494c)"><g clip-path="url(#eaa2cc52d5)"><path fill="#a6a6a6" d="M 10.652344 15.210938 C 10.253906 15.632812 9.46875 16.453125 9.46875 16.453125 C 8.390625 17.582031 7.277344 18.679688 6.183594 19.773438 C 5.925781 19.738281 5.761719 19.699219 5.761719 19.699219 L 3.425781 14.335938 L 0.617188 7.914062 L 1.039062 5.085938 L 1.640625 0.941406 L 1.640625 0.90625 C 1.640625 0.90625 1.640625 0.90625 1.65625 0.921875 C 1.785156 1.015625 2.625 1.597656 3.828125 2.894531 C 5.105469 4.300781 6.785156 6.527344 8.445312 9.863281 C 9.195312 11.378906 9.941406 13.148438 10.652344 15.15625 C 10.652344 15.175781 10.652344 15.195312 10.652344 15.210938 Z M 10.652344 15.210938 " fill-opacity="1" fill-rule="nonzero"/></g></g></g></g><path fill="#fdf0ff" d="M 261.28125 153.554688 C 253.160156 139.03125 241.609375 117.863281 228.78125 97.679688 C 227.449219 95.582031 226.101562 93.5 224.730469 91.4375 C 216.101562 78.335938 207.011719 66.019531 198.035156 56.675781 C 190.773438 49.121094 183.601562 43.503906 176.8125 41.019531 C 174.605469 40.199219 172.433594 39.726562 170.335938 39.613281 C 170.460938 39.613281 170.589844 39.597656 170.71875 39.597656 C 183.691406 39.105469 193.253906 40.164062 201.027344 43.574219 C 202.722656 44.304688 204.3125 45.164062 205.863281 46.128906 C 214.4375 51.511719 220.917969 60.5625 228.144531 74.652344 C 242.285156 100.890625 252.03125 128.007812 261.28125 153.535156 C 261.28125 153.519531 261.28125 153.535156 261.28125 153.554688 Z M 261.28125 153.554688 " fill-opacity="1" fill-rule="nonzero"/><path fill="#9c00c9" d="M 152.6875 45.273438 C 152.707031 45.273438 152.707031 45.253906 152.726562 45.253906 C 152.707031 45.253906 152.6875 45.253906 152.6875 45.273438 Z M 152.6875 45.273438 " fill-opacity="1" fill-rule="nonzero"/><path fill="#9c00c9" d="M 288.289062 228.445312 L 288.195312 228.445312 C 262.339844 172.734375 225.753906 108.554688 190.132812 60.820312 C 187.140625 57.386719 184.074219 53.886719 180.515625 50.636719 C 173.765625 44.230469 163.546875 38.429688 154.660156 43.957031 C 211.300781 9.78125 268.855469 190.925781 288.289062 228.445312 Z M 288.289062 228.445312 " fill-opacity="1" fill-rule="nonzero"/><path fill="#7d00ae" d="M 288.195312 228.445312 L 288.160156 228.445312 C 287.886719 227.898438 287.613281 227.367188 287.320312 226.820312 C 276.445312 205.871094 261.28125 183.117188 243.070312 159.46875 C 232.6875 145.980469 221.320312 132.1875 209.164062 118.28125 C 207.6875 114.449219 206.429688 111.203125 205.71875 109.394531 C 202.25 99.722656 197.960938 88.046875 194.3125 79.488281 C 193.964844 78.703125 193.636719 77.9375 193.308594 77.207031 C 192.980469 76.476562 192.667969 75.765625 192.339844 75.089844 C 184.859375 59.105469 176.59375 46 167.378906 42.445312 C 167.433594 42.460938 167.46875 42.480469 167.523438 42.5 C 188.726562 45.453125 214.714844 84.339844 238.050781 127.386719 C 245.550781 141.199219 252.761719 155.453125 259.476562 169.082031 C 271.007812 192.476562 280.988281 214.046875 288.195312 228.445312 Z M 288.195312 228.445312 " fill-opacity="1" fill-rule="nonzero"/><path fill="#ba00e3" d="M 288.363281 228.445312 L 288.289062 228.445312 C 281.957031 214.757812 273.652344 194.246094 263.964844 171.691406 C 259.710938 161.820312 255.207031 151.566406 250.480469 141.328125 C 249.839844 139.941406 249.203125 138.574219 248.5625 137.1875 C 241.082031 121.238281 233.089844 105.472656 224.730469 91.402344 C 216.226562 77.078125 207.359375 64.542969 198.328125 55.363281 C 189.347656 46.257812 180.207031 40.492188 171.0625 39.597656 C 170.953125 39.578125 170.84375 39.578125 170.71875 39.558594 C 170.84375 39.578125 170.992188 39.578125 171.117188 39.597656 C 172.523438 39.726562 173.894531 39.890625 175.242188 40.089844 C 175.261719 40.089844 175.261719 40.089844 175.261719 40.089844 C 184.476562 41.496094 192.503906 44.835938 199.621094 49.632812 C 230.1875 70.21875 243.800781 117.605469 261.261719 153.5 C 261.480469 153.972656 261.71875 154.429688 261.957031 154.90625 C 262.140625 155.398438 262.304688 155.890625 262.484375 156.382812 C 262.996094 157.84375 263.527344 159.304688 264.035156 160.78125 C 264.710938 162.734375 265.40625 164.6875 266.082031 166.675781 C 266.136719 166.800781 266.171875 166.949219 266.226562 167.078125 C 273.761719 188.882812 281.28125 211.949219 288.363281 228.445312 Z M 288.363281 228.445312 " fill-opacity="1" fill-rule="nonzero"/><g mask="url(#fef081896e)"><g transform="matrix(1, 0, 0, 1, 209, 118)"><g clip-path="url(#d09c00a4cf)"><g clip-path="url(#c718ef1b95)"><path fill="#a6a6a6" d="M 58.742188 55.902344 C 57.535156 55.1875 56.277344 54.460938 54.980469 53.691406 C 41.460938 45.773438 23.6875 35.355469 10.914062 27.890625 C 10.894531 27.835938 3.304688 8.347656 0.183594 0.28125 C 16.167969 5.902344 30.75 13.074219 41.480469 23.328125 C 47.246094 28.839844 51.898438 35.261719 55.035156 42.800781 C 55.710938 44.75 56.40625 46.703125 57.082031 48.691406 C 57.136719 48.820312 57.171875 48.96875 57.226562 49.09375 C 57.867188 51.285156 58.359375 53.546875 58.742188 55.902344 Z M 58.742188 55.902344 " fill-opacity="1" fill-rule="nonzero"/></g></g></g></g><path fill="#a6a6a6" d="M 287.339844 226.839844 C 276.464844 205.890625 261.300781 183.132812 243.089844 159.484375 C 232.707031 146 221.335938 132.203125 209.183594 118.300781 C 207.707031 114.46875 206.445312 111.21875 205.734375 109.414062 C 202.269531 99.742188 197.980469 88.0625 194.332031 79.503906 C 193.984375 78.71875 193.65625 77.953125 193.328125 77.222656 C 199.347656 79.761719 211.628906 96.695312 225.515625 118.648438 C 234.640625 133.0625 244.476562 149.648438 253.707031 165.726562 C 267.980469 190.542969 280.789062 214.191406 287.339844 226.839844 Z M 287.339844 226.839844 " fill-opacity="1" fill-rule="nonzero"/><g mask="url(#44e6c6b49f)"><g transform="matrix(1, 0, 0, 1, 196, 160)"><g clip-path="url(#342ddc6137)"><g clip-path="url(#36ee64524a)"><path fill="#a6a6a6" d="M 34.496094 16.65625 C 27.234375 21.292969 19.644531 25.507812 11.761719 29.011719 C 9.953125 20.195312 5.976562 10.070312 0.191406 5.523438 C 5.320312 3.9375 7.765625 2.914062 12.746094 0.910156 C 18.730469 5.234375 28.511719 12.3125 34.496094 16.65625 Z M 34.496094 16.65625 " fill-opacity="1" fill-rule="nonzero"/></g></g></g></g><path fill="#fdf0ff" d="M 296.902344 224.375 C 296.902344 224.375 296.902344 224.355469 296.882812 224.355469 C 294.621094 219.867188 291.261719 214.902344 287.59375 209.484375 C 260.222656 168.957031 196.554688 107.734375 133.164062 106.074219 C 80.5 105.144531 68.476562 152.476562 97.925781 181.785156 C 99.640625 183.5 101.503906 185.140625 103.492188 186.710938 C 102.945312 187.953125 101.210938 191.621094 100.082031 193.644531 C 97.34375 191.964844 94.804688 190.160156 92.472656 188.261719 C 48.96875 153.027344 75.589844 85.546875 137.359375 91.785156 C 205.332031 96.949219 285.441406 170.816406 296.902344 224.375 Z M 296.902344 224.375 " fill-opacity="1" fill-rule="nonzero"/><path fill="#9c00c9" d="M 294.402344 226.691406 C 290.296875 230.140625 285.078125 232.457031 279.765625 232.785156 C 274.75 223.609375 268.835938 214.574219 262.484375 206.109375 C 249.183594 188.40625 233.617188 172.296875 216.445312 158.335938 C 190.167969 137.40625 124.953125 109.066406 104.023438 133.753906 C 97.160156 144.503906 99.695312 161 110.992188 169.558594 C 109.734375 172.734375 108.710938 174.886719 107.46875 177.695312 C 88.730469 162.1875 83.730469 129.449219 111.410156 117.277344 C 180.152344 88.265625 270.644531 189.300781 288.453125 228.789062 C 288.507812 228.773438 294.347656 226.710938 294.402344 226.691406 Z M 294.402344 226.691406 " fill-opacity="1" fill-rule="nonzero"/><path fill="#a6a6a6" d="M 279.75 232.769531 C 267.886719 233.570312 256.0625 225.578125 249.164062 214.285156 C 231.773438 188.753906 168.636719 126.929688 124.605469 131.566406 C 109.714844 133.683594 99.953125 150.636719 113.511719 163.152344 C 113.363281 163.519531 111.449219 168.445312 110.828125 170.03125 C 97.78125 160.453125 95.753906 143.753906 104.023438 133.773438 C 129.003906 103.226562 192.03125 138.082031 216.410156 158.335938 C 233.582031 172.296875 249.164062 188.40625 262.449219 206.109375 C 268.816406 214.558594 274.730469 223.589844 279.75 232.769531 Z M 279.75 232.769531 " fill-opacity="1" fill-rule="nonzero"/><path fill="#ba00e3" d="M 296.902344 224.375 C 294.984375 226.964844 291.683594 229.210938 288.910156 230.269531 C 271.097656 193.9375 202.378906 113.261719 136.375 113.300781 C 114.367188 113.316406 93.582031 123.535156 92.378906 144.375 C 91.503906 155.488281 96.59375 166.019531 103.566406 173.773438 C 104.824219 175.179688 106.15625 176.492188 107.507812 177.695312 C 107.542969 177.734375 107.578125 177.769531 107.617188 177.789062 C 105.445312 182.769531 103.546875 186.730469 103.527344 186.730469 C 101.484375 185.398438 99.53125 183.863281 97.691406 182.148438 C 89.167969 174.246094 83.019531 162.570312 82.160156 150.363281 C 79.953125 119.085938 105.699219 104.25 133.910156 102.898438 C 204.3125 99.558594 263.542969 171.621094 287.996094 209.394531 C 291.882812 215.378906 294.875 220.507812 296.917969 224.339844 C 296.902344 224.355469 296.902344 224.375 296.902344 224.375 Z M 296.902344 224.375 " fill-opacity="1" fill-rule="nonzero"/><g mask="url(#86ebe17f8f)"><g transform="matrix(1, 0, 0, 1, 122, 128)"><g clip-path="url(#aa0f5935db)"><g clip-path="url(#0ef397faa4)"><path fill="#a6a6a6" d="M 37.238281 28.363281 C 37.238281 28.363281 22.476562 10.136719 0.890625 8.367188 C 2.515625 3.144531 3.574219 0.574219 3.574219 0.574219 L 30.851562 3.984375 L 44.410156 8.75 Z M 37.238281 28.363281 " fill-opacity="1" fill-rule="nonzero"/></g></g></g></g><g mask="url(#4b7d3e9786)"><g transform="matrix(1, 0, 0, 1, 138, 169)"><g clip-path="url(#415d505459)"><g clip-path="url(#52b05dfc28)"><path fill="#a6a6a6" d="M 15.730469 26.707031 C 15.109375 29.480469 14.269531 32.347656 13.136719 35.191406 C 9.433594 35.558594 5.730469 35.792969 1.988281 35.941406 C 2.007812 35.902344 2.023438 35.847656 2.042969 35.8125 C 1.695312 36.398438 1.332031 36.960938 0.984375 37.546875 C 5.234375 25.15625 8.339844 13.257812 9.214844 0.523438 L 15.035156 4.097656 C 14.871094 4.535156 14.707031 4.992188 14.523438 5.429688 C 15.289062 5.355469 16.058594 5.285156 16.824219 5.210938 L 16.953125 5.285156 C 17.570312 10.832031 17.535156 18.441406 15.730469 26.707031 Z M 15.730469 26.707031 " fill-opacity="1" fill-rule="nonzero"/></g></g></g></g><path fill="#fdf0ff" d="M 193.328125 77.207031 C 178.253906 45.382812 158.273438 41.238281 152.671875 45.273438 C 154.421875 43.464844 158.910156 41.257812 162.121094 40.546875 C 176.265625 37.5 192.339844 39.488281 201.027344 43.558594 C 198.289062 43.101562 195.554688 43.027344 193.308594 43.082031 C 190.078125 43.171875 186.847656 42.863281 183.691406 42.113281 C 182.121094 41.75 180.351562 41.457031 178.691406 41.496094 C 171.648438 41.640625 169.769531 42.9375 169.769531 42.9375 C 169.769531 42.9375 180.917969 49.140625 193.328125 77.207031 Z M 193.328125 77.207031 " fill-opacity="1" fill-rule="nonzero"/><g mask="url(#cf159a603c)"><g transform="matrix(1, 0, 0, 1, 92, 160)"><g clip-path="url(#50277dd4e8)"><g clip-path="url(#9f4681a2d9)"><path fill="#a6a6a6" d="M 21.527344 3.152344 C 21.382812 3.519531 19.464844 8.445312 18.847656 10.03125 C 17.605469 13.132812 16.710938 14.960938 15.523438 17.695312 C 15.5625 17.734375 15.597656 17.769531 15.632812 17.789062 C 13.464844 22.769531 11.566406 26.730469 11.546875 26.730469 C 11 27.96875 9.265625 31.636719 8.136719 33.664062 C 5.398438 31.984375 2.859375 30.179688 0.527344 28.28125 C 0.488281 28.261719 0.472656 28.226562 0.472656 28.226562 C 0.472656 28.226562 4.082031 24.230469 5.707031 22.148438 C 5.800781 22.039062 5.890625 21.910156 5.980469 21.800781 C 8.023438 19.15625 9.886719 16.457031 11.511719 13.917969 C 11.546875 13.863281 11.566406 13.828125 11.601562 13.773438 C 13.136719 11.347656 14.46875 9.082031 15.578125 7.113281 C 15.691406 6.929688 15.78125 6.746094 15.890625 6.566406 C 17.804688 3.082031 18.863281 0.78125 19.027344 0.453125 C 19.6875 1.363281 20.578125 2.203125 21.527344 3.152344 Z M 21.527344 3.152344 " fill-opacity="1" fill-rule="nonzero"/></g></g></g></g><path fill="#fdf0ff" d="M 194.53125 46.332031 L 191.941406 45.035156 C 193.472656 45.746094 194.402344 46.257812 194.53125 46.332031 Z M 194.53125 46.332031 " fill-opacity="1" fill-rule="nonzero"/><g fill="#000000" fill-opacity="1"><g transform="translate(110.367185, 271.202956)"><g><path d="M 12.71875 0 L -1.125 -33 L 7.359375 -33 L 15.6875 -11.3125 L 24 -33 L 32.484375 -33 L 18.640625 0 Z M 12.71875 0 "/></g></g></g><g fill="#000000" fill-opacity="1"><g transform="translate(141.724074, 271.202956)"><g><path d="M 9.921875 -33 L 9.921875 0 L 2.40625 0 L 2.40625 -33 Z M 9.921875 -33 "/></g></g></g><g fill="#000000" fill-opacity="1"><g transform="translate(154.042849, 271.202956)"><g><path d="M 14.5625 -33.59375 C 16.34375 -33.59375 18.085938 -33.332031 19.796875 -32.8125 C 21.503906 -32.300781 22.769531 -31.789062 23.59375 -31.28125 L 24.796875 -30.484375 L 21.765625 -24.484375 C 21.523438 -24.640625 21.191406 -24.84375 20.765625 -25.09375 C 20.335938 -25.351562 19.535156 -25.695312 18.359375 -26.125 C 17.179688 -26.550781 16.085938 -26.765625 15.078125 -26.765625 C 13.828125 -26.765625 12.859375 -26.492188 12.171875 -25.953125 C 11.492188 -25.421875 11.15625 -24.703125 11.15625 -23.796875 C 11.15625 -23.347656 11.316406 -22.925781 11.640625 -22.53125 C 11.960938 -22.144531 12.507812 -21.734375 13.28125 -21.296875 C 14.050781 -20.859375 14.726562 -20.503906 15.3125 -20.234375 C 15.90625 -19.972656 16.816406 -19.578125 18.046875 -19.046875 C 20.171875 -18.140625 21.988281 -16.90625 23.5 -15.34375 C 25.007812 -13.78125 25.765625 -12.015625 25.765625 -10.046875 C 25.765625 -8.148438 25.421875 -6.492188 24.734375 -5.078125 C 24.054688 -3.660156 23.125 -2.550781 21.9375 -1.75 C 20.75 -0.957031 19.4375 -0.367188 18 0.015625 C 16.5625 0.398438 15 0.59375 13.3125 0.59375 C 11.875 0.59375 10.460938 0.445312 9.078125 0.15625 C 7.691406 -0.132812 6.53125 -0.5 5.59375 -0.9375 C 4.664062 -1.375 3.828125 -1.804688 3.078125 -2.234375 C 2.328125 -2.660156 1.78125 -3.019531 1.4375 -3.3125 L 0.921875 -3.765625 L 4.6875 -10.078125 C 5 -9.816406 5.4375 -9.476562 6 -9.0625 C 6.5625 -8.644531 7.554688 -8.085938 8.984375 -7.390625 C 10.410156 -6.703125 11.671875 -6.359375 12.765625 -6.359375 C 15.929688 -6.359375 17.515625 -7.4375 17.515625 -9.59375 C 17.515625 -10.050781 17.398438 -10.472656 17.171875 -10.859375 C 16.953125 -11.242188 16.554688 -11.628906 15.984375 -12.015625 C 15.410156 -12.398438 14.898438 -12.707031 14.453125 -12.9375 C 14.015625 -13.164062 13.296875 -13.515625 12.296875 -13.984375 C 11.296875 -14.453125 10.554688 -14.804688 10.078125 -15.046875 C 8.078125 -16.023438 6.53125 -17.253906 5.4375 -18.734375 C 4.34375 -20.210938 3.796875 -21.804688 3.796875 -23.515625 C 3.796875 -26.472656 4.890625 -28.890625 7.078125 -30.765625 C 9.265625 -32.648438 11.757812 -33.59375 14.5625 -33.59375 Z M 14.5625 -33.59375 "/></g></g></g><g fill="#000000" fill-opacity="1"><g transform="translate(180.920178, 271.202956)"><g><path d="M 27.765625 -33 L 27.765625 -11.71875 C 27.765625 -7.664062 26.671875 -4.597656 24.484375 -2.515625 C 22.296875 -0.441406 19.09375 0.59375 14.875 0.59375 C 10.664062 0.59375 7.46875 -0.441406 5.28125 -2.515625 C 3.09375 -4.597656 2 -7.664062 2 -11.71875 L 2 -33 L 9.515625 -33 L 9.515625 -13.921875 C 9.515625 -11.253906 9.9375 -9.398438 10.78125 -8.359375 C 11.625 -7.316406 12.988281 -6.796875 14.875 -6.796875 C 16.769531 -6.796875 18.132812 -7.316406 18.96875 -8.359375 C 19.8125 -9.398438 20.234375 -11.253906 20.234375 -13.921875 L 20.234375 -33 Z M 27.765625 -33 "/></g></g></g><g fill="#000000" fill-opacity="1"><g transform="translate(210.677218, 271.202956)"><g><path d="M 19.15625 -33 L 32.484375 0 L 24.40625 0 L 21.953125 -6.59375 L 9.40625 -6.59375 L 6.953125 0 L -1.125 0 L 12.203125 -33 Z M 19.40625 -13.203125 L 15.71875 -22.796875 L 15.640625 -22.796875 L 11.953125 -13.203125 Z M 19.40625 -13.203125 "/></g></g></g><g fill="#000000" fill-opacity="1"><g transform="translate(242.034108, 271.202956)"><g><path d="M 9.921875 -33 L 9.921875 -6.59375 L 21.28125 -6.59375 L 21.28125 0 L 2.40625 0 L 2.40625 -33 Z M 9.921875 -33 "/></g></g></g><g fill="#000000" fill-opacity="1"><g transform="translate(70.80706, 288.046591)"><g><path d="M 6.9375 -7 L 11.734375 -12.34375 L 12.5 -12.34375 L 12.5 0 L 10.03125 0 L 10.046875 -6.78125 L 6.9375 -3.515625 L 3.828125 -6.78125 L 3.828125 0 L 1.359375 0 L 1.359375 -12.34375 L 2.140625 -12.34375 Z M 6.9375 -7 "/></g></g></g><g fill="#000000" fill-opacity="1"><g transform="translate(88.922602, 288.046591)"><g><path d="M 0.265625 0 L 5.390625 -12.59375 L 5.640625 -12.59375 L 10.765625 0 L 8.03125 0 L 7.53125 -1.3125 L 3.5 -1.3125 L 3.03125 0 Z M 4.390625 -3.59375 L 6.625 -3.59375 L 5.53125 -6.75 Z M 4.390625 -3.59375 "/></g></g></g><g fill="#000000" fill-opacity="1"><g transform="translate(104.268421, 288.046591)"><g><path d="M 7.40625 0 L 4.96875 -4.640625 L 3.796875 -4.640625 L 3.796875 0 L 1.359375 0 L 1.359375 -12.15625 L 6.15625 -12.15625 C 6.875 -12.15625 7.484375 -12.003906 7.984375 -11.703125 C 8.492188 -11.398438 8.890625 -11.007812 9.171875 -10.53125 C 9.460938 -10.050781 9.640625 -9.53125 9.703125 -8.96875 C 9.773438 -8.40625 9.734375 -7.851562 9.578125 -7.3125 C 9.421875 -6.78125 9.160156 -6.304688 8.796875 -5.890625 C 8.429688 -5.472656 7.945312 -5.179688 7.34375 -5.015625 L 10.171875 0 Z M 3.796875 -7 L 5.9375 -7 C 6.257812 -7 6.519531 -7.085938 6.71875 -7.265625 C 6.914062 -7.453125 7.046875 -7.679688 7.109375 -7.953125 C 7.179688 -8.222656 7.179688 -8.492188 7.109375 -8.765625 C 7.046875 -9.046875 6.914062 -9.273438 6.71875 -9.453125 C 6.519531 -9.628906 6.257812 -9.71875 5.9375 -9.71875 L 3.796875 -9.71875 Z M 3.796875 -7 "/></g></g></g><g fill="#000000" fill-opacity="1"><g transform="translate(118.934556, 288.046591)"><g><path d="M 1.359375 0 L 1.359375 -12.15625 L 3.796875 -12.15625 L 3.796875 -7.3125 L 6.84375 -12.15625 L 9.6875 -12.15625 L 5.75 -6.15625 L 10.03125 0 L 7.015625 0 L 3.796875 -4.765625 L 3.796875 0 Z M 1.359375 0 "/></g></g></g><g fill="#000000" fill-opacity="1"><g transform="translate(133.447758, 288.046591)"><g><path d="M 7.65625 0 L 1.359375 0 L 1.359375 -12.15625 L 7.453125 -12.15625 L 7.453125 -9.71875 L 3.796875 -9.71875 L 3.796875 -7.296875 L 6.984375 -7.296875 L 6.984375 -4.859375 L 3.796875 -4.859375 L 3.796875 -2.4375 L 7.65625 -2.4375 Z M 7.65625 0 "/></g></g></g><g fill="#000000" fill-opacity="1"><g transform="translate(146.261752, 288.046591)"><g><path d="M 5.796875 0 L 3.359375 0 L 3.359375 -9.71875 L 0.34375 -9.71875 L 0.34375 -12.140625 L 8.828125 -12.140625 L 8.828125 -9.71875 L 5.796875 -9.71875 Z M 5.796875 0 "/></g></g></g><g fill="#000000" fill-opacity="1"><g transform="translate(159.806406, 288.046591)"><g><path d="M 3.796875 0 L 1.359375 0 L 1.359375 -12.15625 L 3.796875 -12.15625 Z M 3.796875 0 "/></g></g></g><g fill="#000000" fill-opacity="1"><g transform="translate(169.221964, 288.046591)"><g><path d="M 3.796875 -6.609375 L 3.796875 0 L 1.359375 0 L 1.359375 -12.40625 L 2 -12.40625 L 8.140625 -5.265625 L 8.140625 -12.140625 L 10.59375 -12.140625 L 10.59375 0.25 L 9.9375 0.25 Z M 3.796875 -6.609375 "/></g></g></g><g fill="#000000" fill-opacity="1"><g transform="translate(185.434384, 288.046591)"><g><path d="M 10.125 -0.75 C 9.664062 -0.488281 9.171875 -0.285156 8.640625 -0.140625 C 8.117188 -0.00390625 7.566406 0.0625 6.984375 0.0625 C 5.984375 0.0625 5.101562 -0.101562 4.34375 -0.4375 C 3.582031 -0.78125 2.9375 -1.238281 2.40625 -1.8125 C 1.882812 -2.382812 1.488281 -3.03125 1.21875 -3.75 C 0.957031 -4.46875 0.820312 -5.210938 0.8125 -5.984375 C 0.800781 -6.753906 0.914062 -7.5 1.15625 -8.21875 C 1.40625 -8.945312 1.785156 -9.609375 2.296875 -10.203125 C 2.804688 -10.796875 3.453125 -11.273438 4.234375 -11.640625 C 5.015625 -12.015625 5.929688 -12.21875 6.984375 -12.25 C 7.472656 -12.28125 7.914062 -12.257812 8.3125 -12.1875 C 8.71875 -12.125 9.050781 -12.050781 9.3125 -11.96875 C 9.582031 -11.882812 9.753906 -11.832031 9.828125 -11.8125 L 9.53125 -9.34375 C 9.300781 -9.445312 8.976562 -9.550781 8.5625 -9.65625 C 8.15625 -9.769531 7.628906 -9.816406 6.984375 -9.796875 C 6.285156 -9.773438 5.6875 -9.617188 5.1875 -9.328125 C 4.695312 -9.046875 4.304688 -8.679688 4.015625 -8.234375 C 3.734375 -7.796875 3.546875 -7.316406 3.453125 -6.796875 C 3.359375 -6.273438 3.363281 -5.753906 3.46875 -5.234375 C 3.570312 -4.710938 3.769531 -4.234375 4.0625 -3.796875 C 4.363281 -3.359375 4.757812 -3.007812 5.25 -2.75 C 5.738281 -2.488281 6.316406 -2.359375 6.984375 -2.359375 C 7.097656 -2.359375 7.210938 -2.363281 7.328125 -2.375 C 7.441406 -2.394531 7.554688 -2.414062 7.671875 -2.4375 L 7.671875 -6.09375 L 10.125 -6.09375 Z M 10.125 -0.75 "/></g></g></g><g fill="#000000" fill-opacity="1"><g transform="translate(201.120044, 288.046591)"><g/></g></g><g fill="#000000" fill-opacity="1"><g transform="translate(210.195758, 288.046591)"><g><path d="M 0.796875 -0.78125 L 1.109375 -3.328125 C 1.566406 -3.003906 2.023438 -2.769531 2.484375 -2.625 C 2.941406 -2.476562 3.359375 -2.394531 3.734375 -2.375 C 4.109375 -2.351562 4.390625 -2.347656 4.578125 -2.359375 C 4.929688 -2.378906 5.234375 -2.503906 5.484375 -2.734375 C 5.742188 -2.972656 5.859375 -3.257812 5.828125 -3.59375 C 5.804688 -3.9375 5.675781 -4.195312 5.4375 -4.375 C 5.195312 -4.5625 4.910156 -4.710938 4.578125 -4.828125 C 3.941406 -5.066406 3.347656 -5.34375 2.796875 -5.65625 C 2.242188 -5.96875 1.800781 -6.351562 1.46875 -6.8125 C 1.132812 -7.28125 0.96875 -7.851562 0.96875 -8.53125 C 0.96875 -9.207031 1.113281 -9.820312 1.40625 -10.375 C 1.695312 -10.925781 2.101562 -11.363281 2.625 -11.6875 C 3.144531 -12.019531 3.738281 -12.203125 4.40625 -12.234375 C 4.71875 -12.265625 5.101562 -12.253906 5.5625 -12.203125 C 6.019531 -12.160156 6.640625 -12.003906 7.421875 -11.734375 L 7.125 -9.390625 C 6.457031 -9.660156 5.925781 -9.8125 5.53125 -9.84375 C 5.132812 -9.882812 4.835938 -9.898438 4.640625 -9.890625 C 4.210938 -9.867188 3.898438 -9.722656 3.703125 -9.453125 C 3.503906 -9.179688 3.414062 -8.875 3.4375 -8.53125 C 3.46875 -8.195312 3.613281 -7.941406 3.875 -7.765625 C 4.132812 -7.585938 4.441406 -7.4375 4.796875 -7.3125 C 5.429688 -7.082031 6.015625 -6.800781 6.546875 -6.46875 C 7.078125 -6.132812 7.503906 -5.734375 7.828125 -5.265625 C 8.148438 -4.796875 8.3125 -4.238281 8.3125 -3.59375 C 8.3125 -2.914062 8.160156 -2.304688 7.859375 -1.765625 C 7.566406 -1.222656 7.144531 -0.785156 6.59375 -0.453125 C 6.050781 -0.128906 5.398438 0.0546875 4.640625 0.109375 C 4.410156 0.117188 4.097656 0.109375 3.703125 0.078125 C 3.316406 0.046875 2.875 -0.03125 2.375 -0.15625 C 1.875 -0.289062 1.347656 -0.5 0.796875 -0.78125 Z M 0.796875 -0.78125 "/></g></g></g><g fill="#000000" fill-opacity="1"><g transform="translate(223.434557, 288.046591)"><g><path d="M 7.203125 0.171875 C 6.160156 0.171875 5.242188 -0.00390625 4.453125 -0.359375 C 3.671875 -0.710938 3.019531 -1.1875 2.5 -1.78125 C 1.976562 -2.375 1.585938 -3.039062 1.328125 -3.78125 C 1.066406 -4.53125 0.9375 -5.300781 0.9375 -6.09375 C 0.9375 -6.882812 1.066406 -7.648438 1.328125 -8.390625 C 1.585938 -9.140625 1.976562 -9.8125 2.5 -10.40625 C 3.019531 -11.007812 3.671875 -11.484375 4.453125 -11.828125 C 5.242188 -12.179688 6.160156 -12.359375 7.203125 -12.359375 C 8.242188 -12.359375 9.160156 -12.179688 9.953125 -11.828125 C 10.742188 -11.484375 11.398438 -11.007812 11.921875 -10.40625 C 12.441406 -9.8125 12.832031 -9.140625 13.09375 -8.390625 C 13.351562 -7.648438 13.484375 -6.882812 13.484375 -6.09375 C 13.484375 -5.300781 13.351562 -4.53125 13.09375 -3.78125 C 12.832031 -3.039062 12.441406 -2.375 11.921875 -1.78125 C 11.398438 -1.1875 10.742188 -0.710938 9.953125 -0.359375 C 9.160156 -0.00390625 8.242188 0.171875 7.203125 0.171875 Z M 7.203125 -2.34375 C 7.898438 -2.34375 8.492188 -2.476562 8.984375 -2.75 C 9.484375 -3.019531 9.878906 -3.378906 10.171875 -3.828125 C 10.472656 -4.273438 10.675781 -4.765625 10.78125 -5.296875 C 10.882812 -5.835938 10.882812 -6.375 10.78125 -6.90625 C 10.675781 -7.4375 10.472656 -7.925781 10.171875 -8.375 C 9.878906 -8.820312 9.484375 -9.179688 8.984375 -9.453125 C 8.492188 -9.722656 7.898438 -9.859375 7.203125 -9.859375 C 6.515625 -9.859375 5.921875 -9.722656 5.421875 -9.453125 C 4.921875 -9.179688 4.523438 -8.820312 4.234375 -8.375 C 3.941406 -7.925781 3.742188 -7.4375 3.640625 -6.90625 C 3.535156 -6.375 3.535156 -5.835938 3.640625 -5.296875 C 3.742188 -4.765625 3.941406 -4.273438 4.234375 -3.828125 C 4.523438 -3.378906 4.921875 -3.019531 5.421875 -2.75 C 5.921875 -2.476562 6.515625 -2.34375 7.203125 -2.34375 Z M 7.203125 -2.34375 "/></g></g></g><g fill="#000000" fill-opacity="1"><g transform="translate(242.076855, 288.046591)"><g><path d="M 1.359375 -12.15625 L 3.796875 -12.15625 L 3.796875 -2.4375 L 7.65625 -2.4375 L 7.65625 0 L 1.359375 0 Z M 1.359375 -12.15625 "/></g></g></g><g fill="#000000" fill-opacity="1"><g transform="translate(254.703933, 288.046591)"><g><path d="M 10.078125 -4.234375 C 10.078125 -3.398438 9.914062 -2.6875 9.59375 -2.09375 C 9.28125 -1.507812 8.863281 -1.039062 8.34375 -0.6875 C 7.820312 -0.34375 7.25 -0.113281 6.625 0 C 6 0.125 5.375 0.125 4.75 0 C 4.125 -0.113281 3.550781 -0.34375 3.03125 -0.6875 C 2.507812 -1.039062 2.085938 -1.507812 1.765625 -2.09375 C 1.453125 -2.6875 1.296875 -3.398438 1.296875 -4.234375 L 1.296875 -12.15625 L 3.71875 -12.15625 L 3.71875 -4.25 C 3.71875 -3.738281 3.847656 -3.328125 4.109375 -3.015625 C 4.378906 -2.710938 4.707031 -2.507812 5.09375 -2.40625 C 5.488281 -2.3125 5.882812 -2.3125 6.28125 -2.40625 C 6.675781 -2.507812 7.003906 -2.710938 7.265625 -3.015625 C 7.535156 -3.328125 7.671875 -3.738281 7.671875 -4.25 L 7.671875 -12.15625 L 10.078125 -12.15625 Z M 10.078125 -4.234375 "/></g></g></g><g fill="#000000" fill-opacity="1"><g transform="translate(270.355616, 288.046591)"><g><path d="M 5.796875 0 L 3.359375 0 L 3.359375 -9.71875 L 0.34375 -9.71875 L 0.34375 -12.140625 L 8.828125 -12.140625 L 8.828125 -9.71875 L 5.796875 -9.71875 Z M 5.796875 0 "/></g></g></g><g fill="#000000" fill-opacity="1"><g transform="translate(283.90027, 288.046591)"><g><path d="M 3.796875 0 L 1.359375 0 L 1.359375 -12.15625 L 3.796875 -12.15625 Z M 3.796875 0 "/></g></g></g><g fill="#000000" fill-opacity="1"><g transform="translate(293.315828, 288.046591)"><g><path d="M 7.203125 0.171875 C 6.160156 0.171875 5.242188 -0.00390625 4.453125 -0.359375 C 3.671875 -0.710938 3.019531 -1.1875 2.5 -1.78125 C 1.976562 -2.375 1.585938 -3.039062 1.328125 -3.78125 C 1.066406 -4.53125 0.9375 -5.300781 0.9375 -6.09375 C 0.9375 -6.882812 1.066406 -7.648438 1.328125 -8.390625 C 1.585938 -9.140625 1.976562 -9.8125 2.5 -10.40625 C 3.019531 -11.007812 3.671875 -11.484375 4.453125 -11.828125 C 5.242188 -12.179688 6.160156 -12.359375 7.203125 -12.359375 C 8.242188 -12.359375 9.160156 -12.179688 9.953125 -11.828125 C 10.742188 -11.484375 11.398438 -11.007812 11.921875 -10.40625 C 12.441406 -9.8125 12.832031 -9.140625 13.09375 -8.390625 C 13.351562 -7.648438 13.484375 -6.882812 13.484375 -6.09375 C 13.484375 -5.300781 13.351562 -4.53125 13.09375 -3.78125 C 12.832031 -3.039062 12.441406 -2.375 11.921875 -1.78125 C 11.398438 -1.1875 10.742188 -0.710938 9.953125 -0.359375 C 9.160156 -0.00390625 8.242188 0.171875 7.203125 0.171875 Z M 7.203125 -2.34375 C 7.898438 -2.34375 8.492188 -2.476562 8.984375 -2.75 C 9.484375 -3.019531 9.878906 -3.378906 10.171875 -3.828125 C 10.472656 -4.273438 10.675781 -4.765625 10.78125 -5.296875 C 10.882812 -5.835938 10.882812 -6.375 10.78125 -6.90625 C 10.675781 -7.4375 10.472656 -7.925781 10.171875 -8.375 C 9.878906 -8.820312 9.484375 -9.179688 8.984375 -9.453125 C 8.492188 -9.722656 7.898438 -9.859375 7.203125 -9.859375 C 6.515625 -9.859375 5.921875 -9.722656 5.421875 -9.453125 C 4.921875 -9.179688 4.523438 -8.820312 4.234375 -8.375 C 3.941406 -7.925781 3.742188 -7.4375 3.640625 -6.90625 C 3.535156 -6.375 3.535156 -5.835938 3.640625 -5.296875 C 3.742188 -4.765625 3.941406 -4.273438 4.234375 -3.828125 C 4.523438 -3.378906 4.921875 -3.019531 5.421875 -2.75 C 5.921875 -2.476562 6.515625 -2.34375 7.203125 -2.34375 Z M 7.203125 -2.34375 "/></g></g></g><g fill="#000000" fill-opacity="1"><g transform="translate(311.958138, 288.046591)"><g><path d="M 3.796875 -6.609375 L 3.796875 0 L 1.359375 0 L 1.359375 -12.40625 L 2 -12.40625 L 8.140625 -5.265625 L 8.140625 -12.140625 L 10.59375 -12.140625 L 10.59375 0.25 L 9.9375 0.25 Z M 3.796875 -6.609375 "/></g></g></g></svg>